<svg width="1200" height="360" viewBox="0 0 1200 360" fill="none" xmlns="http://www.w3.org/2000/svg" role="img" aria-labelledby="title desc">
  <title id="title">Adaptive, nature-based and low-carbon building research banner</title>
  <desc id="desc">A clean schematic banner showing an adaptive building, environmental sensing, airflow, daylight, and plant-based design elements.</desc>
  <defs>
    <linearGradient id="sky" x1="0" y1="0" x2="1200" y2="360" gradientUnits="userSpaceOnUse">
      <stop stop-color="#f6fbf8"/>
      <stop offset="0.58" stop-color="#eef7f5"/>
      <stop offset="1" stop-color="#f8fafc"/>
    </linearGradient>
    <linearGradient id="glass" x1="350" y1="70" x2="840" y2="300" gradientUnits="userSpaceOnUse">
      <stop stop-color="#d9f2ed"/>
      <stop offset="1" stop-color="#c9dde8"/>
    </linearGradient>
    <filter id="softShadow" x="-20%" y="-20%" width="140%" height="140%">
      <feDropShadow dx="0" dy="18" stdDeviation="22" flood-color="#0b3027" flood-opacity="0.12"/>
    </filter>
  </defs>

  <rect width="1200" height="360" fill="url(#sky)"/>
  <path d="M0 287C124 248 201 275 312 245C454 207 536 126 701 154C838 178 871 238 1010 218C1099 206 1147 166 1200 137V360H0V287Z" fill="#dfeee7"/>
  <path d="M0 311C129 277 223 304 358 279C511 251 603 199 737 222C884 248 955 308 1200 246V360H0V311Z" fill="#cfe3d8"/>

  <g filter="url(#softShadow)">
    <path d="M356 86H822L875 302H304L356 86Z" fill="#ffffff"/>
    <path d="M384 111H798L834 281H342L384 111Z" fill="url(#glass)"/>
    <path d="M430 111L393 281" stroke="#ffffff" stroke-width="4" stroke-opacity="0.9"/>
    <path d="M510 111L485 281" stroke="#ffffff" stroke-width="4" stroke-opacity="0.9"/>
    <path d="M590 111V281" stroke="#ffffff" stroke-width="4" stroke-opacity="0.9"/>
    <path d="M670 111L696 281" stroke="#ffffff" stroke-width="4" stroke-opacity="0.9"/>
    <path d="M750 111L798 281" stroke="#ffffff" stroke-width="4" stroke-opacity="0.9"/>
    <path d="M368 162H811" stroke="#ffffff" stroke-width="4" stroke-opacity="0.85"/>
    <path d="M355 219H822" stroke="#ffffff" stroke-width="4" stroke-opacity="0.85"/>
    <path d="M304 302H875" stroke="#10372f" stroke-width="8" stroke-linecap="round"/>
  </g>

  <g opacity="0.9">
    <path d="M168 245C158 189 198 145 248 134C247 195 223 235 168 245Z" fill="#2f9a6d"/>
    <path d="M164 248C208 214 225 176 248 134" stroke="#0f5a44" stroke-width="5" stroke-linecap="round"/>
    <path d="M227 270C210 219 238 170 287 151C297 211 281 252 227 270Z" fill="#76b885"/>
    <path d="M226 270C264 230 275 190 287 151" stroke="#28684f" stroke-width="5" stroke-linecap="round"/>
    <path d="M980 264C954 216 971 162 1014 132C1038 187 1030 231 980 264Z" fill="#3c9f77"/>
    <path d="M980 264C1008 218 1013 175 1014 132" stroke="#0e5f48" stroke-width="5" stroke-linecap="round"/>
  </g>

  <g stroke="#1c6c7e" stroke-width="5" stroke-linecap="round" opacity="0.74">
    <path d="M150 105C232 76 300 82 366 119"/>
    <path d="M174 124L150 105L182 96"/>
    <path d="M850 96C924 74 1004 86 1060 130"/>
    <path d="M1030 134L1060 130L1043 104"/>
    <path d="M250 92C304 47 403 35 481 63"/>
    <path d="M454 71L481 63L462 42"/>
  </g>

  <g>
    <circle cx="920" cy="136" r="34" fill="#ffffff" stroke="#0b6b50" stroke-width="5"/>
    <circle cx="920" cy="136" r="8" fill="#0b6b50"/>
    <path d="M920 102V84M920 188V170M954 136H972M868 136H886" stroke="#0b6b50" stroke-width="5" stroke-linecap="round"/>
    <path d="M944 112L958 98M882 174L896 160M944 160L958 174M882 98L896 112" stroke="#0b6b50" stroke-width="5" stroke-linecap="round"/>
  </g>

  <g>
    <rect x="94" y="111" width="132" height="82" rx="14" fill="#ffffff" stroke="#0b6b50" stroke-width="5"/>
    <path d="M117 154H141L153 132L176 178L190 154H204" stroke="#0b6b50" stroke-width="5" stroke-linecap="round" stroke-linejoin="round"/>
    <circle cx="118" cy="219" r="8" fill="#0b6b50"/>
    <circle cx="159" cy="219" r="8" fill="#1c6c7e"/>
    <circle cx="200" cy="219" r="8" fill="#b7791f"/>
    <path d="M126 219H151M167 219H192" stroke="#94a3b8" stroke-width="4" stroke-linecap="round"/>
  </g>

  <g font-family="Inter, Segoe UI, Arial, sans-serif">
    <text x="600" y="52" text-anchor="middle" font-size="23" font-weight="700" fill="#0f3028">Biophilic Design | IAQ/IEQ | Adaptive Buildings | Low-Carbon Performance</text>
    <text x="600" y="330" text-anchor="middle" font-size="15" font-weight="600" fill="#36554d">Future Ecologies Group Lab - School of Design, Southern University of Science and Technology</text>
  </g>
</svg>
